<svg width="1920" height="1080" viewBox="0 0 1920 1080" fill="none" xmlns="http://www.w3.org/2000/svg" role="img" aria-labelledby="title desc">
  <title id="title">Wayfinder landing hero map</title>
  <desc id="desc">A stylized geographic game scene with roads, terrain, pins, and a glowing route.</desc>
  <rect width="1920" height="1080" fill="#E6F4EF"/>
  <path d="M0 189C219 99 404 116 575 222C771 344 930 332 1112 206C1307 71 1621 54 1920 170V0H0V189Z" fill="#BFE3D5"/>
  <path d="M0 851C211 753 401 760 571 849C752 944 965 955 1161 827C1382 682 1647 713 1920 846V1080H0V851Z" fill="#B7D8E9"/>
  <path d="M137 1002C386 811 541 681 714 610C901 533 1054 579 1210 658C1433 771 1601 721 1800 515" stroke="#F8FAFC" stroke-width="96" stroke-linecap="round"/>
  <path d="M145 996C391 814 545 688 719 617C900 543 1048 587 1203 664C1426 775 1597 729 1795 522" stroke="#CBD5E1" stroke-width="14" stroke-linecap="round" stroke-dasharray="44 32"/>
  <path d="M0 486C170 422 347 409 532 448C721 489 916 585 1117 503C1365 402 1632 249 1920 354" stroke="#0F766E" stroke-width="50" stroke-linecap="round" opacity=".15"/>
  <path d="M63 356C178 395 322 385 495 326C663 269 821 213 983 268C1099 307 1187 398 1313 413C1471 432 1639 345 1851 262" stroke="#0EA5E9" stroke-width="38" stroke-linecap="round" opacity=".22"/>
  <path d="M261 732C383 667 493 635 592 635C774 635 927 739 1097 749C1259 758 1390 665 1509 567" stroke="#F97316" stroke-width="16" stroke-linecap="round" stroke-dasharray="24 28"/>
  <g opacity=".2" stroke="#0F172A" stroke-width="3">
    <path d="M0 160H1920"/>
    <path d="M0 320H1920"/>
    <path d="M0 480H1920"/>
    <path d="M0 640H1920"/>
    <path d="M0 800H1920"/>
    <path d="M0 960H1920"/>
    <path d="M160 0V1080"/>
    <path d="M320 0V1080"/>
    <path d="M480 0V1080"/>
    <path d="M640 0V1080"/>
    <path d="M800 0V1080"/>
    <path d="M960 0V1080"/>
    <path d="M1120 0V1080"/>
    <path d="M1280 0V1080"/>
    <path d="M1440 0V1080"/>
    <path d="M1600 0V1080"/>
    <path d="M1760 0V1080"/>
  </g>
  <g filter="url(#shadow)">
    <path d="M1510 284C1564.12 284 1608 327.876 1608 382C1608 454 1510 532 1510 532C1510 532 1412 454 1412 382C1412 327.876 1455.88 284 1510 284Z" fill="#F97316"/>
    <circle cx="1510" cy="381" r="39" fill="#F8FAFC"/>
  </g>
  <g filter="url(#shadow)">
    <path d="M612 501C657.84 501 695 538.16 695 584C695 645 612 714 612 714C612 714 529 645 529 584C529 538.16 566.16 501 612 501Z" fill="#0F766E"/>
    <circle cx="612" cy="584" r="31" fill="#F8FAFC"/>
  </g>
  <g filter="url(#shadow)">
    <rect x="1138" y="718" width="365" height="220" rx="28" fill="#0F172A"/>
    <rect x="1163" y="743" width="315" height="126" rx="18" fill="#F8FAFC"/>
    <path d="M1185 830C1234 790 1280 786 1325 818C1367 848 1412 834 1454 780" stroke="#0F766E" stroke-width="18" stroke-linecap="round"/>
    <circle cx="1242" cy="802" r="13" fill="#F97316"/>
    <circle cx="1427" cy="796" r="13" fill="#0EA5E9"/>
    <rect x="1163" y="894" width="117" height="17" rx="8.5" fill="#E2E8F0"/>
    <rect x="1297" y="894" width="181" height="17" rx="8.5" fill="#E2E8F0"/>
  </g>
  <defs>
    <filter id="shadow" x="-20%" y="-20%" width="140%" height="150%" color-interpolation-filters="sRGB">
      <feDropShadow dx="0" dy="24" stdDeviation="24" flood-color="#0F172A" flood-opacity=".22"/>
    </filter>
  </defs>
</svg>
