<svg width="1920" height="980" viewBox="0 0 1920 980" fill="none" xmlns="http://www.w3.org/2000/svg" role="img" aria-labelledby="title desc">
  <title id="title">Wayfinder partners hero</title>
  <desc id="desc">A purple partnership section with layered campaign windows and route cards.</desc>
  <rect width="1920" height="980" fill="#5146B8"/>
  <path d="M0 763C217 698 394 693 532 748C718 822 898 833 1073 780C1284 716 1448 680 1920 724V980H0V763Z" fill="#4338CA" opacity=".36"/>
  <g filter="url(#windows)">
    <rect x="448" y="98" width="330" height="152" rx="12" fill="#F8FAFC"/>
    <rect x="448" y="98" width="330" height="31" rx="12" fill="#E2E8F0"/>
    <rect x="468" y="146" width="128" height="75" rx="8" fill="#BAE6FD"/>
    <rect x="616" y="146" width="126" height="12" rx="6" fill="#0F172A" opacity=".78"/>
    <rect x="616" y="170" width="86" height="9" rx="4.5" fill="#64748B"/>
    <rect x="616" y="190" width="112" height="9" rx="4.5" fill="#64748B"/>
    <rect x="620" y="176" width="330" height="152" rx="12" fill="#DC2626"/>
    <rect x="646" y="206" width="106" height="90" rx="10" fill="#FCA5A5"/>
    <circle cx="805" cy="239" r="38" fill="#FFFFFF" opacity=".95"/>
    <rect x="860" y="215" width="58" height="12" rx="6" fill="#FFFFFF"/>
    <rect x="860" y="241" width="44" height="9" rx="4.5" fill="#FECACA"/>
    <rect x="536" y="254" width="310" height="132" rx="12" fill="#172554"/>
    <rect x="558" y="279" width="96" height="80" rx="10" fill="#0EA5E9"/>
    <path d="M573 339C591 308 611 299 632 313" stroke="#F8FAFC" stroke-width="8" stroke-linecap="round"/>
    <rect x="680" y="286" width="133" height="14" rx="7" fill="#F8FAFC"/>
    <rect x="680" y="316" width="101" height="10" rx="5" fill="#94A3B8"/>
    <rect x="680" y="340" width="123" height="10" rx="5" fill="#94A3B8"/>
  </g>
  <g filter="url(#cardShadow)">
    <rect x="1216" y="172" width="356" height="356" rx="30" fill="#19163D"/>
    <rect x="1216" y="172" width="356" height="356" rx="30" stroke="#5B50A6" stroke-width="2"/>
    <text x="1394" y="243" text-anchor="middle" fill="#FFFFFF" font-family="Inter, ui-sans-serif, system-ui" font-size="28" font-weight="850" font-style="italic">Sign up to play</text>
    <rect x="1246" y="284" width="296" height="38" rx="19" fill="#F8FAFC"/>
    <rect x="1246" y="334" width="296" height="38" rx="19" fill="#0B1020"/>
    <rect x="1246" y="384" width="296" height="38" rx="19" fill="#2563EB"/>
    <rect x="1246" y="434" width="296" height="38" rx="19" fill="#211D4D" stroke="#6B63A8" stroke-width="2"/>
  </g>
  <text x="352" y="548" fill="#FFFFFF" font-family="Inter, ui-sans-serif, system-ui" font-size="74" font-weight="950" font-style="italic">Partnerships and co-labs</text>
  <text x="356" y="606" fill="#EDE9FE" font-family="Inter, ui-sans-serif, system-ui" font-size="23" font-weight="750">Turn real places, campaigns, and communities into playable map challenges.</text>
  <rect x="354" y="648" width="142" height="46" rx="23" fill="transparent" stroke="#DDD6FE" stroke-width="2"/>
  <text x="425" y="678" text-anchor="middle" fill="#FFFFFF" font-family="Inter, ui-sans-serif, system-ui" font-size="15" font-weight="900">READ MORE</text>
  <defs>
    <filter id="windows" x="398" y="62" width="602" height="374" color-interpolation-filters="sRGB">
      <feDropShadow dx="0" dy="26" stdDeviation="22" flood-color="#1E1B4B" flood-opacity=".42"/>
    </filter>
    <filter id="cardShadow" x="1166" y="132" width="456" height="456" color-interpolation-filters="sRGB">
      <feDropShadow dx="0" dy="24" stdDeviation="28" flood-color="#000000" flood-opacity=".35"/>
    </filter>
  </defs>
</svg>
